<svg width="24" height="24" viewBox="0 0 24 24" fill="none" xmlns="http://www.w3.org/2000/svg">
<path d="M12 22C17.5228 22 22 17.5228 22 12C22 6.47715 17.5228 2 12 2C6.47715 2 2 6.47715 2 12C2 17.5228 6.47715 22 12 22Z" fill="#F6F6F6"/>
<path d="M13.0604 11.9999L15.3604 9.69986C15.6504 9.40986 15.6504 8.92986 15.3604 8.63986C15.0704 8.34986 14.5904 8.34986 14.3004 8.63986L12.0004 10.9399L9.70035 8.63986C9.41035 8.34986 8.93035 8.34986 8.64035 8.63986C8.35035 8.92986 8.35035 9.40986 8.64035 9.69986L10.9404 11.9999L8.64035 14.2999C8.35035 14.5899 8.35035 15.0699 8.64035 15.3599C8.79035 15.5099 8.98035 15.5799 9.17035 15.5799C9.36035 15.5799 9.55035 15.5099 9.70035 15.3599L12.0004 13.0599L14.3004 15.3599C14.4504 15.5099 14.6404 15.5799 14.8304 15.5799C15.0204 15.5799 15.2104 15.5099 15.3604 15.3599C15.6504 15.0699 15.6504 14.5899 15.3604 14.2999L13.0604 11.9999Z" fill="#DDDDDD"/>
</svg>
