<svg xmlns="http://www.w3.org/2000/svg" fill="none" viewBox="0 0 24 26"><path fill="#111" d="M19.92 8.999c-.19 0-.38-.07-.53-.22l-6.52-6.52c-.48-.48-1.26-.48-1.74 0l-6.52 6.52c-.29.29-.77.29-1.06 0a.754.754 0 0 1 0-1.06l6.52-6.52a2.74 2.74 0 0 1 3.86 0l6.52 6.52c.29.29.29.77 0 1.06-.15.14-.34.22-.53.22ZM12 25.596c-.7 0-1.4-.27-1.93-.8l-6.52-6.52a.754.754 0 0 1 0-1.06c.29-.29.77-.29 1.06 0l6.52 6.52c.48.48 1.26.48 1.74 0l6.52-6.52c.29-.29.77-.29 1.06 0 .29.29.29.77 0 1.06l-6.52 6.52c-.53.53-1.23.8-1.93.8Z"/></svg>