<svg width="25" height="24" viewBox="0 0 25 24" fill="none" xmlns="http://www.w3.org/2000/svg">
<path d="M12.5101 17C11.6601 17 10.8001 16.78 10.1301 16.35L4.11007 12.42C2.99007 11.69 2.32007 10.46 2.32007 9.12C2.32007 7.78 2.99007 6.55 4.11007 5.82L10.1401 1.9C11.4801 1.03 13.5701 1.03 14.9001 1.91L20.8901 5.84C22.0001 6.57 22.6701 7.8 22.6701 9.13C22.6701 10.46 22.0001 11.69 20.8901 12.42L14.9001 16.35C14.2301 16.79 13.3701 17 12.5101 17ZM12.5101 2.75C11.9401 2.75 11.3701 2.88 10.9601 3.16L4.94007 7.08C4.24007 7.54 3.83007 8.28 3.83007 9.12C3.83007 9.96 4.23007 10.7 4.94007 11.16L10.9601 15.09C11.7901 15.63 13.2501 15.63 14.0801 15.09L20.0701 11.16C20.7701 10.7 21.1701 9.96 21.1701 9.12C21.1701 8.28 20.7701 7.54 20.0701 7.08L14.0801 3.15C13.6601 2.89 13.0901 2.75 12.5101 2.75Z" fill="#666666"/>
<path d="M12.4999 22.75C12.0599 22.75 11.6099 22.69 11.2499 22.57L8.05994 21.51C6.54994 21.01 5.35994 19.36 5.36994 17.77L5.37994 13.08C5.37994 12.67 5.71994 12.33 6.12994 12.33C6.53994 12.33 6.87994 12.67 6.87994 13.08L6.86994 17.77C6.86994 18.71 7.64994 19.79 8.53994 20.09L11.7299 21.15C12.1299 21.28 12.8699 21.28 13.2699 21.15L16.4599 20.09C17.3499 19.79 18.1299 18.71 18.1299 17.78V13.14C18.1299 12.73 18.4699 12.39 18.8799 12.39C19.2899 12.39 19.6299 12.73 19.6299 13.14V17.78C19.6299 19.37 18.4499 21.01 16.9399 21.52L13.7499 22.58C13.3899 22.69 12.9399 22.75 12.4999 22.75Z" fill="#666666"/>
<path d="M21.8999 15.75C21.4899 15.75 21.1499 15.41 21.1499 15V9C21.1499 8.59 21.4899 8.25 21.8999 8.25C22.3099 8.25 22.6499 8.59 22.6499 9V15C22.6499 15.41 22.3099 15.75 21.8999 15.75Z" fill="#666666"/>
</svg>
