<svg width="48" height="48" viewBox="0 0 48 48" fill="none" xmlns="http://www.w3.org/2000/svg">
<path d="M32.38 4H15.64C8.36001 4 4.02002 8.33999 4.02002 15.62V32.36C4.02002 39.64 8.36001 43.98 15.64 43.98H32.38C39.66 43.98 44 39.64 44 32.36V15.62C44 8.33999 39.66 4 32.38 4Z" fill="#0B63C1"/>
<path d="M23 16.18V34.5C23 35.22 22.28 35.7 21.62 35.42C19.2 34.38 16.04 33.42 13.84 33.14L13.46 33.1C12.24 32.94 11.24 31.8 11.24 30.56V15.16C11.24 13.64 12.48 12.5 14 12.62C16.5 12.82 20.2 14.02 22.52 15.34C22.82 15.48 23 15.82 23 16.18Z" fill="white"/>
<path d="M36.76 15.4V30.54C36.76 31.78 35.76 32.92 34.54 33.08L34.12 33.12C31.94 33.42 28.8 34.36 26.38 35.38C25.72 35.66 25 35.18 25 34.46V16.16C25 15.8 25.18 15.46 25.5 15.28C27.82 13.98 31.44 12.82 33.9 12.6H33.98C35.52 12.62 36.76 13.86 36.76 15.4Z" fill="white"/>
</svg>
